<svg aria-hidden="true" style="position: absolute; width: 0; height: 0; overflow: hidden;" version="1.1" xmlns="http://www.w3.org/2000/svg" xmlns:xlink="http://www.w3.org/1999/xlink">
    <defs>
        <symbol id="icon-done" viewBox="0 0 45 32">
            <path fill="#fff" style="fill: var(--color1, #fff)" d="M42.12 0.638c-0.835-0.851-2.188-0.851-3.023 0l-25.606 26.102-9.843-10.033c-0.835-0.851-2.188-0.851-3.023 0s-0.835 2.23 0 3.081l11.354 11.574c0.834 0.851 2.189 0.85 3.023 0l27.117-27.643c0.835-0.851 0.835-2.23 0-3.081z"></path>
        </symbol>
        <symbol id="icon-play" viewBox="0 0 16 18">
            <path fill-rule="evenodd" clip-rule="evenodd" d="M14.6744 6.857C16.0472 7.61875 16.0472 9.59286 14.6744 10.3546L2.77489 16.9576C1.44185 17.6973 -0.195505 16.7333 -0.195505 15.2087V2.00286C-0.195505 0.47834 1.44185 -0.485643 2.77489 0.254052L14.6744 6.857Z"/>
        </symbol>
        <symbol id="icon-star-border" viewBox="0 0 19 18">
            <path d="M4.12668 11.0896L2.76514 16.8951C2.72298 17.0709 2.73564 17.2551 2.80146 17.4237C2.86728 17.5923 2.98321 17.7375 3.1341 17.8402C3.28499 17.9429 3.46383 17.9984 3.64727 17.9995C3.8307 18.0006 4.0102 17.9472 4.16232 17.8462L9.13788 14.5799L14.1134 17.8462C14.2691 17.948 14.4527 18.0004 14.6395 17.9963C14.8262 17.9923 15.0073 17.932 15.1583 17.8237C15.3092 17.7153 15.4229 17.564 15.4839 17.3901C15.5449 17.2162 15.5504 17.0281 15.4997 16.851L13.8283 11.0923L17.9733 7.4193C18.106 7.30159 18.2008 7.14815 18.246 6.97795C18.2911 6.80775 18.2846 6.62826 18.2272 6.46167C18.1699 6.29508 18.0642 6.14871 17.9232 6.04064C17.7823 5.93257 17.6122 5.86756 17.4341 5.85364L12.2247 5.44513L9.97034 0.531304C9.89846 0.373079 9.78161 0.23872 9.6339 0.144443C9.48618 0.0501658 9.31391 0 9.13788 0C8.96185 0 8.78959 0.0501658 8.64187 0.144443C8.49416 0.23872 8.37731 0.373079 8.30542 0.531304L6.05111 5.44513L0.841621 5.85274C0.66659 5.86639 0.49926 5.92941 0.359649 6.03426C0.220038 6.1391 0.114058 6.28133 0.054388 6.44394C-0.00528203 6.60654 -0.0161155 6.78263 0.0231838 6.95113C0.0624832 7.11964 0.150251 7.27343 0.275987 7.3941L4.12668 11.0896ZM6.73371 7.19704C6.89682 7.18439 7.05346 7.12876 7.18723 7.03599C7.32099 6.94322 7.42695 6.81672 7.49398 6.66976L9.13788 3.08764L10.7818 6.66976C10.8488 6.81672 10.9548 6.94322 11.0885 7.03599C11.2223 7.12876 11.3789 7.18439 11.5421 7.19704L15.1716 7.48048L12.1826 10.1295C11.9231 10.3599 11.8198 10.7144 11.9149 11.0455L13.0599 14.9911L9.64595 12.7497C9.4961 12.6507 9.31972 12.5978 9.13925 12.5978C8.95879 12.5978 8.7824 12.6507 8.63256 12.7497L5.06514 15.0919L6.02461 11.0014C6.05979 10.851 6.05507 10.6941 6.0109 10.546C5.96674 10.3979 5.8846 10.2634 5.77241 10.1556L2.99633 7.49038L6.73371 7.19704Z"/>
        </symbol>
        <symbol id="icon-star" viewBox="0 0 19 18">
            <path d="M18.2273 6.46146C18.1699 6.29487 18.0642 6.1485 17.9232 6.0404C17.7822 5.93231 17.6122 5.86722 17.4341 5.85319L12.2247 5.44558L9.97034 0.531754C9.89855 0.37349 9.78177 0.239068 9.63411 0.144711C9.48645 0.050354 9.31421 9.52702e-05 9.13818 1.35311e-07C8.96215 -9.49996e-05 8.78985 0.0499776 8.64209 0.144175C8.49432 0.238372 8.37739 0.372668 8.30542 0.530855L6.05111 5.44558L0.841621 5.85319C0.66659 5.86684 0.49926 5.92986 0.359649 6.03471C0.220038 6.13955 0.114058 6.28178 0.054388 6.44439C-0.00528203 6.60699 -0.0161155 6.78308 0.0231838 6.95158C0.0624832 7.12009 0.150251 7.27388 0.275987 7.39455L4.12577 11.09L2.76423 16.8956C2.72288 17.0713 2.73613 17.2552 2.80226 17.4234C2.86838 17.5917 2.98432 17.7364 3.13504 17.839C3.28576 17.9415 3.4643 17.997 3.64748 17.9984C3.83066 17.9998 4.01003 17.9469 4.16232 17.8467L9.13788 14.5804L14.1134 17.8467C14.2691 17.9484 14.4527 18.0008 14.6395 17.9968C14.8262 17.9927 15.0073 17.9325 15.1583 17.8241C15.3092 17.7157 15.4229 17.5644 15.4839 17.3905C15.5449 17.2166 15.5504 17.0285 15.4997 16.8515L13.8283 11.0927L17.9733 7.41975C18.2447 7.1786 18.3443 6.80248 18.2273 6.46146Z"/>
        </symbol>
        <symbol id="icon-instagram" viewBox="0 0 31 32">
            <path stroke-linecap="round" stroke-linejoin="round" stroke-width="2.064" d="M21.935 2.602H9.032A6.45 6.45 0 0 0 2.58 9.054v12.903a6.45 6.45 0 0 0 6.452 6.452h12.903a6.45 6.45 0 0 0 6.452-6.452V9.054a6.45 6.45 0 0 0-6.452-6.452"/>
            <path stroke-linecap="round" stroke-linejoin="round" stroke-width="2.064" d="M20.645 14.692a5.161 5.161 0 1 1-10.211 1.514 5.161 5.161 0 0 1 10.211-1.514M22.581 8.408h.013"/>
        </symbol>
        <symbol id="icon-facebook" viewBox="0 0 33 32">
            <path stroke-linecap="round" stroke-linejoin="round" stroke-width="2.133" d="M24.505 2.667h-4a6.67 6.67 0 0 0-6.667 6.667v4h-4v5.333h4v10.667h5.333V18.667h4l1.333-5.333h-5.333v-4A1.335 1.335 0 0 1 20.505 8h4z"/>
        </symbol>
        <symbol id="icon-twitter" viewBox="0 0 37 32">
            <path stroke-linejoin="round" stroke-linecap="round" stroke-miterlimit="4" stroke-width="2.4615" d="M35.32 2.169c-1.473 1.039-3.105 1.834-4.831 2.354-0.927-1.065-2.158-1.82-3.528-2.163s-2.812-0.257-4.131 0.247c-1.319 0.503-2.452 1.4-3.245 2.568s-1.208 2.552-1.189 3.963v1.538c-2.704 0.070-5.383-0.53-7.799-1.745s-4.493-3.011-6.048-5.224c0 0-6.154 13.846 7.692 20-3.168 2.151-6.943 3.229-10.769 3.077 13.846 7.692 30.769 0 30.769-17.692-0.001-0.429-0.043-0.856-0.123-1.277 1.57-1.548 2.678-3.504 3.2-5.646z"></path>
        </symbol>
        <symbol id="icon-close" viewBox="0 0 32 32">
            <path stroke-linejoin="round" stroke-linecap="round" stroke-miterlimit="4" stroke-width="2.2857" d="M24 8l-16 16"></path>
            <path stroke-linejoin="round" stroke-linecap="round" stroke-miterlimit="4" stroke-width="2.2857" d="M8 8l16 16"></path>
        </symbol>
        <symbol id="icon-plus" viewBox="0 0 24 24" fill="none">
            <path fill-rule="evenodd" clip-rule="evenodd" d="M0 12C0 5.376 5.376 0 12 0C18.624 0 24 5.376 24 12C24 18.624 18.624 24 12 24C5.376 24 0 18.624 0 12ZM13.2 13.2H18V10.8H13.2V6H10.8V10.8H6V13.2H10.8V18H13.2V13.2Z" fill="#02897A"/>
        </symbol>
        <symbol id="icon-minus" viewBox="0 0 24 24" fill="none">
            <path fill-rule="evenodd" clip-rule="evenodd" d="M0 12C0 5.376 5.376 0 12 0C18.624 0 24 5.376 24 12C24 18.624 18.624 24 12 24C5.376 24 0 18.624 0 12ZM6 13.2H18V10.8H6V13.2Z" fill="#02897A"/>
        </symbol>
    </defs>
</svg>